<svg class="svg-icon" style="width: 1em; height: 1em;vertical-align: middle;fill: currentColor;overflow: hidden;" viewBox="0 0 1024 1024" version="1.1" xmlns="http://www.w3.org/2000/svg"><path d="M639.152447 660.680251c5.060249 4.331655 11.549034 7.027044 18.741853 7.027044 15.813151 0 28.626991-12.628622 28.626991-28.15934 0.048095-9.324366-4.662183-17.571191-11.806907-22.677489 0.022513-0.116657 0.022513-0.257873 0.022513-0.328481-28.510334-21.107737-58.497299-35.609009-86.890976-45.542242 67.939345-41.254589 114.184599-113.737414 114.184599-199.084221 0-129.365346-106.968244-231.763504-237.036601-231.763504-130.067334 0-236.989529 103.804181-236.989529 233.215576 0 83.893712 44.792159 157.781536 112.731504 197.632149C145.63438 640.672568 128.275014 838.305741 128.275014 841.116763c-1.428535 15.671934 10.097986 29.845749 26.027793 29.845749 15.882736 1.453095 30.314423-9.911744 31.767518-25.583678 0-9.955746 21.669532-226.071875 276.017404-240.290715 6.326079 0 97.902774-3.351328 176.969551 55.614645C639.081839 660.680251 639.105375 660.680251 639.152447 660.680251zM464.993918 548.228109c-98.276281 0-179.194218-78.199013-179.194218-176.312588 0-98.112552 80.941474-174.884053 179.194218-174.884053 98.30084 0 179.194218 78.177524 179.194218 176.313611C644.188136 471.435119 563.294758 548.228109 464.993918 548.228109zM871.854323 739.91178 655.950018 739.91178c-13.261025 0-23.989367 10.728342-23.989367 23.989367 0 13.256932 10.728342 23.988344 23.989367 23.988344l215.904305 0c13.235442 0 23.988344-10.731412 23.988344-23.988344C895.842667 750.640122 885.089765 739.91178 871.854323 739.91178zM871.854323 835.869249 655.950018 835.869249c-13.261025 0-23.989367 10.728342-23.989367 23.988344 0 13.257955 10.728342 23.989367 23.989367 23.989367l215.904305 0c13.235442 0 23.988344-10.731412 23.988344-23.989367C895.842667 846.598614 885.089765 835.869249 871.854323 835.869249zM775.896854 691.933045l95.957469 0c13.235442 0 23.988344-10.731412 23.988344-23.989367 0-13.260002-10.753925-23.989367-23.988344-23.989367l-95.957469 0c-13.261025 0-23.989367 10.729365-23.989367 23.989367C751.906463 681.201633 762.635829 691.933045 775.896854 691.933045z"  /></svg>