<svg width="1512" height="982" viewBox="0 0 1512 982" fill="none" xmlns="http://www.w3.org/2000/svg">
<g clip-path="url(#clip0_1_5)">
<path d="M165.102 563.81L13.226 512.048C6.73852 509.837 0 514.66 0 521.513V913.943C0 919.465 4.47712 923.943 9.99997 923.943H1499.04C1504.56 923.943 1509.04 919.465 1509.04 913.943V516.343C1509.04 509.109 1501.59 504.268 1494.98 507.202L1378.15 559.042L1272.58 602.414C1271.84 602.72 1271.13 603.114 1270.48 603.589L1223.29 638.068C1222.42 638.709 1221.44 639.202 1220.4 639.529L1113.74 673.198C1111.88 673.787 1109.88 673.815 1107.99 673.279L1080.08 665.335L900.738 639.501C898.637 639.199 896.495 639.572 894.62 640.568L867.721 654.861C865.646 655.964 863.249 656.3 860.95 655.812L786.703 640.031C783.741 639.402 780.653 640.148 778.306 642.062L773.283 646.156C771.137 647.905 768.362 648.686 765.619 648.313L699.45 639.324C698.051 639.134 696.627 639.242 695.273 639.642L637.934 656.568L550.805 681.975C548.814 682.555 546.691 682.503 544.732 681.823L498.741 665.886C497.688 665.521 496.581 665.335 495.466 665.335H450.218C449.248 665.335 448.283 665.194 447.354 664.916L362.166 639.454C361.237 639.177 360.273 639.036 359.303 639.036H298.738C296.191 639.036 293.74 638.064 291.885 636.318L276.718 622.047C275.572 620.969 274.188 620.176 272.677 619.734L256.277 614.928L195.369 590.442C194.19 589.968 193.112 589.274 192.193 588.396L168.782 566.043C167.732 565.04 166.476 564.278 165.102 563.81Z" fill="#159888"/>
<path d="M256.599 634.691C256.192 634.691 255.858 635.024 255.858 635.432C255.858 635.839 257.525 636.172 259.562 636.172C261.599 636.172 263.266 635.839 263.266 635.432C263.266 635.024 262.752 634.691 262.125 634.691C261.172 634.691 261.019 633.682 261.199 628.58C261.366 623.824 261.653 622.468 262.492 622.468C263.084 622.468 263.801 623.302 264.085 624.32L264.6 626.172L264.674 624.135C264.714 623.015 265.1 622.098 265.532 622.098C265.963 622.098 266.088 621.729 265.809 621.278C265.464 620.719 265.833 620.626 266.965 620.985C268.187 621.373 268.539 621.248 268.295 620.509C268.112 619.957 266.823 619.333 265.429 619.122C263.081 618.767 263.004 618.673 264.377 617.848C265.823 616.979 265.818 616.957 264.192 616.935C262.98 616.919 262.511 616.458 262.473 615.246C262.423 613.656 262.392 613.647 261.784 615.061C261.384 615.993 261.128 612.924 261.096 606.78C261.053 598.844 261.261 596.8 262.208 595.854C264.049 594.012 267.999 594.405 270.728 596.702C272.828 598.468 273.014 598.518 272.261 597.11C271.789 596.228 270.664 594.99 269.762 594.358L268.122 593.208H270.175C271.304 593.208 273.212 593.717 274.414 594.339C276.821 595.583 276.987 595.281 275.785 591.833C274.931 589.384 273.964 588.934 268.822 588.591L265.858 588.394L268.364 587.177C271.349 585.728 274.782 586.404 276.785 588.836L278.081 590.41V588.846C278.081 584.325 270.979 582.744 265.962 586.149C262.687 588.371 262.433 587.261 265.512 584.182C267.011 582.683 268.242 582.063 269.215 582.318C271.114 582.815 271.098 581.636 269.192 580.616C267.135 579.515 267.33 578.852 270.118 577.464C272.487 576.285 272.494 576.265 270.592 576.218C269.528 576.192 267.406 577.021 265.875 578.06C264.344 579.098 262.945 579.801 262.765 579.621C262.585 579.441 262.962 578.04 263.603 576.508C264.243 574.975 264.634 573.588 264.471 573.426C264.176 573.13 261.639 577.038 260.766 579.134C260.511 579.745 260.427 578.434 260.578 576.22C260.816 572.727 260.722 572.373 259.867 573.542C259.325 574.283 258.669 576.312 258.408 578.051L257.934 581.212L255.311 579.432C252.613 577.602 249.932 577.084 249.932 578.393C249.932 578.801 250.564 579.134 251.337 579.134C252.769 579.134 257.34 583.725 257.34 585.163C257.34 585.598 256.162 584.92 254.721 583.655C252.944 582.095 251.331 581.356 249.701 581.356C247.226 581.356 244.006 583.086 244.006 584.415C244.006 584.829 244.851 584.503 245.883 583.691C247.378 582.516 248.222 582.348 250.029 582.866C254.756 584.221 255.798 586.464 251.599 586.243C250.071 586.163 247.821 586.329 246.599 586.614L244.377 587.131L246.414 587.207C248.448 587.282 249.111 588.269 247.71 589.134C247.303 589.386 246.969 589.964 246.969 590.418C246.969 590.873 247.799 590.465 248.814 589.512C250.486 587.94 250.849 587.871 252.703 588.766L254.747 589.754L251.83 590.276C250.184 590.571 248.328 591.52 247.571 592.456C245.611 594.876 245.93 595.657 248.266 594.154L250.303 592.844L248.266 595.305C247.145 596.659 246.239 598.158 246.252 598.636C246.265 599.114 246.959 598.588 247.795 597.468C249.876 594.679 250.645 594.913 250.23 598.209L249.881 600.986L251.22 597.653C252.282 595.007 252.968 594.272 254.542 594.089C255.633 593.962 257.209 594.224 258.044 594.67C259.467 595.432 259.562 596.155 259.562 606.198C259.562 616.616 259.519 616.913 257.994 616.913C256.752 616.913 256.513 616.58 256.845 615.31C257.232 613.833 257.171 613.801 256.064 614.908C254.958 616.014 254.789 616.009 253.903 614.844C253.043 613.711 252.94 613.794 252.919 615.642C252.898 617.45 252.718 617.611 251.462 616.939C249.078 615.663 247.932 616.119 250.117 617.474C252.898 619.198 252.674 619.867 249.488 619.35C247.63 619.048 246.622 619.231 246.166 619.952C245.123 621.598 245.369 621.99 247.154 621.53C248.648 621.145 248.714 621.231 247.79 622.357C246.903 623.439 246.911 623.555 247.852 623.194C248.701 622.868 248.873 623.263 248.623 624.962C248.447 626.165 248.659 627.763 249.095 628.513C249.801 629.728 249.89 629.662 249.91 627.899C249.943 624.975 250.668 623.579 252.155 623.579C253.598 623.579 254.377 624.988 254.377 627.599C254.377 628.521 255.043 629.879 255.858 630.617C257.4 632.012 257.887 634.691 256.599 634.691Z" fill="#159888"/>
<path fill-rule="evenodd" clip-rule="evenodd" d="M205.29 606.615C205.29 607.765 206.03 608.046 209.649 608.268C212.046 608.415 214.461 608.432 215.016 608.306C215.572 608.179 216.28 608.076 216.59 608.076C216.9 608.076 217.175 604.409 217.2 599.928C217.262 588.948 217.624 583.064 218.239 583.064C218.519 583.064 219.173 583.575 219.692 584.2C220.211 584.826 221.105 585.337 221.679 585.337C223.625 585.337 222.741 581.882 220.071 579.051C218.612 577.504 217.418 575.898 217.418 575.482C217.418 574.428 219.955 574.535 221.056 575.636C221.763 576.343 221.965 576.237 221.965 575.157C221.965 574.393 220.829 572.696 219.439 571.386C217.891 569.925 216.743 567.985 216.472 566.37C216.229 564.921 215.795 563.139 215.506 562.409C214.52 559.915 216.279 561.167 219.295 565.105C221.542 568.039 222.376 568.702 222.573 567.709C223.001 565.549 221.364 561.592 218.95 558.949L216.702 556.487L219.144 554.98C220.487 554.15 222.354 553.271 223.292 553.026C225.281 552.507 225.504 551.586 223.798 550.932C221.949 550.222 218.995 550.385 217.303 551.291C216.461 551.742 215.606 551.944 215.402 551.74C214.878 551.216 217.08 547.148 218.546 545.931C219.222 545.37 220.109 544.286 220.518 543.523C221.151 542.34 220.965 542.134 219.264 542.134C217.263 542.134 212.741 545.889 211.988 548.176C211.703 549.041 211.16 548.831 209.566 547.236C207.008 544.679 204.261 543.943 201.673 545.122L199.683 546.029L203.649 548.198C207.16 550.118 210.499 553.071 210.571 554.319C210.585 554.56 209.586 554.608 208.351 554.427C205.847 554.06 200.215 556.461 198.1 558.797C196.701 560.343 195.524 567.167 196.665 567.118C197.032 567.102 198.258 565.749 199.391 564.111C201.28 561.38 206.575 557.293 208.225 557.293C208.606 557.293 208.271 558.559 207.483 560.106C205.889 563.232 205.702 565.571 206.753 569.236C207.188 570.752 207.188 571.694 206.753 571.694C206.366 571.694 206.048 571.199 206.048 570.593C206.048 568.591 204.328 565.671 202.407 564.412L200.514 563.172L201.002 565.728C201.271 567.133 201.705 569.229 201.966 570.385L202.442 572.487L200.233 571.219C197.377 569.58 193.276 570.291 190.881 572.84C188.726 575.134 189.289 575.926 192.324 574.868C193.581 574.43 195.544 574.333 196.721 574.652L198.848 575.227L196.017 576.169C192.628 577.296 190.131 580.221 190.131 583.066V585.137L192.974 582.454L195.816 579.77L196.279 583.88C196.755 588.116 198.517 593.147 199.802 593.941C200.221 594.2 200.732 592.468 201.004 589.869C201.506 585.06 203.239 580.032 204.394 580.032C207.015 580.032 208.878 602.252 206.427 604.286C205.802 604.805 205.29 605.853 205.29 606.615ZM213.968 566.094C213.685 564.38 213.282 562.69 213.073 562.339C212.659 561.642 209.569 566.533 208.766 569.157C208.286 570.725 208.39 570.758 211.375 570L214.484 569.211L213.968 566.094ZM213.895 580.755C214.252 581.111 214.173 584.785 213.721 588.948C213.269 593.099 212.592 597.31 212.217 598.306C211.641 599.834 211.449 599.405 210.994 595.57C210.37 590.306 208.541 582.616 207.413 580.507C206.684 579.145 206.845 579.086 209.942 579.581C211.761 579.872 213.54 580.4 213.895 580.755Z" fill="#159888"/>
<path d="M1474.68 541.653C1469.82 546.047 1470.13 551.288 1475.3 552.284C1482.23 553.619 1485.25 553.649 1491.28 552.444C1496.61 551.378 1496.84 551.015 1494.44 547.583C1492.33 544.571 1492.03 536.326 1492.85 503.663C1493.79 466.697 1492.82 451.625 1488.74 439.288C1488.07 437.244 1491.75 440.171 1496.91 445.794L1506.31 456.016L1506.37 450.294C1506.43 444.364 1496.51 427.207 1493.02 427.207C1489.25 427.207 1495.27 422.2 1503.17 418.765C1513.29 414.362 1513.34 414.317 1510.09 412.265C1506.44 409.953 1497.74 410.025 1493.3 412.403C1487.2 415.667 1488.89 408.386 1496.21 399.831C1499.79 395.651 1502.71 391.737 1502.71 391.133C1502.71 390.528 1500.54 390.034 1497.88 390.034C1492.21 390.034 1480.42 400.888 1480.4 406.111C1480.4 408.878 1479.4 408.409 1475.29 403.717C1469.33 396.9 1463.89 394.86 1456.21 396.549C1449.04 398.121 1449.2 400.145 1456.71 403.159C1464.09 406.12 1470.17 410.632 1474.94 416.697L1478.54 421.276L1471.58 420.439C1466.17 419.788 1462.4 420.892 1454.71 425.383C1443.54 431.902 1438.2 440.922 1440.84 448.817C1442.31 453.234 1442.53 453.108 1449.31 444.029C1453.14 438.901 1459.58 433.017 1463.62 430.956C1472.1 426.631 1474.18 426.258 1471.59 429.53C1467.8 434.303 1465.44 445.472 1466.65 452.979C1467.32 457.205 1468.39 460.651 1469.03 460.638C1469.67 460.625 1472.61 455.564 1475.58 449.392C1478.54 443.22 1481.65 438.859 1482.49 439.699C1485.87 443.076 1487.43 466.231 1485.79 488.687C1483.72 517.066 1479.47 537.32 1474.68 541.653Z" fill="#159888"/>
<path d="M1046.43 675.664C1043.76 678.078 1043.93 680.957 1046.77 681.504C1050.58 682.238 1052.23 682.255 1055.55 681.592C1058.47 681.007 1058.6 680.807 1057.28 678.922C1056.12 677.267 1055.96 672.738 1056.41 654.793C1056.92 634.485 1056.39 626.205 1054.15 619.427C1053.78 618.304 1055.8 619.912 1058.64 623.001L1063.81 628.617L1063.84 625.474C1063.87 622.216 1058.42 612.79 1056.5 612.79C1054.43 612.79 1057.74 610.039 1062.08 608.152C1067.64 605.733 1067.66 605.709 1065.88 604.581C1063.87 603.311 1059.1 603.35 1056.65 604.657C1053.31 606.45 1054.23 602.45 1058.25 597.75C1060.22 595.454 1061.83 593.303 1061.83 592.971C1061.83 592.639 1060.63 592.368 1059.17 592.368C1056.06 592.368 1049.58 598.331 1049.57 601.2C1049.57 602.72 1049.02 602.463 1046.76 599.885C1043.49 596.14 1040.5 595.019 1036.28 595.947C1032.34 596.811 1032.43 597.922 1036.56 599.578C1040.61 601.205 1043.95 603.684 1046.57 607.016L1048.55 609.532L1044.72 609.072C1041.75 608.714 1039.68 609.321 1035.45 611.788C1029.32 615.369 1026.39 620.324 1027.83 624.662C1028.64 627.089 1028.77 627.019 1032.49 622.032C1034.59 619.214 1038.13 615.982 1040.35 614.849C1045.01 612.473 1046.15 612.268 1044.73 614.066C1042.65 616.688 1041.35 622.824 1042.01 626.948C1042.38 629.27 1042.97 631.163 1043.32 631.156C1043.67 631.149 1045.29 628.369 1046.92 624.978C1048.55 621.587 1050.26 619.191 1050.72 619.653C1052.57 621.508 1053.43 634.229 1052.53 646.566C1051.39 662.157 1049.06 673.284 1046.43 675.664Z" fill="#159888"/>
<path d="M1079.15 684.134C1081.82 686.548 1081.65 689.427 1078.81 689.974C1075 690.708 1073.35 690.725 1070.03 690.062C1067.11 689.477 1066.98 689.277 1068.3 687.392C1069.46 685.737 1069.62 681.208 1069.17 663.263C1068.66 642.955 1069.19 634.675 1071.43 627.897C1071.8 626.774 1069.78 628.382 1066.94 631.471L1061.77 637.087L1061.74 633.944C1061.71 630.686 1067.16 621.26 1069.08 621.26C1071.15 621.26 1067.84 618.509 1063.5 616.622C1057.94 614.203 1057.91 614.179 1059.7 613.051C1061.71 611.781 1066.48 611.82 1068.92 613.127C1072.27 614.92 1071.35 610.92 1067.33 606.22C1065.36 603.924 1063.75 601.773 1063.75 601.442C1063.75 601.11 1064.95 600.838 1066.41 600.838C1069.52 600.838 1076 606.801 1076.01 609.671C1076.01 611.19 1076.56 610.933 1078.82 608.355C1082.09 604.61 1085.08 603.489 1089.3 604.417C1093.24 605.281 1093.15 606.393 1089.02 608.048C1084.97 609.675 1081.63 612.154 1079.01 615.486L1077.03 618.002L1080.86 617.542C1083.83 617.184 1085.9 617.791 1090.13 620.258C1096.26 623.839 1099.19 628.795 1097.75 633.132C1096.94 635.559 1096.81 635.489 1093.09 630.502C1090.99 627.684 1087.45 624.452 1085.23 623.319C1080.57 620.944 1079.43 620.738 1080.85 622.536C1082.93 625.158 1084.23 631.294 1083.57 635.418C1083.2 637.74 1082.61 639.633 1082.26 639.626C1081.91 639.619 1080.29 636.839 1078.66 633.448C1077.03 630.057 1075.32 627.661 1074.86 628.123C1073.01 629.978 1072.15 642.699 1073.05 655.036C1074.19 670.627 1076.52 681.754 1079.15 684.134Z" fill="#159888"/>
<path fill-rule="evenodd" clip-rule="evenodd" d="M957.762 696.23C954.748 695.185 955.8 693.008 959.319 693.008C965.584 693.008 967.547 688.764 968.394 673.38C969.405 655.045 968.733 652.71 961.177 648.282C954.167 644.173 950.593 643.755 948.324 646.779C947.456 647.935 943.72 649.169 940.022 649.52C936.324 649.871 932.736 650.507 932.048 650.932C929.898 652.261 923.313 648.354 923.301 645.742C923.301 644.374 922.807 643.255 922.216 643.255C918.755 643.255 917.185 630.287 920.323 627.618C920.782 627.227 921.994 625.418 923.017 623.597C924.521 620.919 924.531 619.873 923.07 618.113C921.589 616.329 921.679 615.635 923.567 614.255C924.833 613.329 926.182 610.679 926.563 608.367C928.498 596.647 931.164 594.074 944.139 591.409C946.614 590.9 948.989 589.575 949.415 588.464C949.841 587.354 952.774 586.031 955.931 585.527C959.088 585.022 961.671 584.144 961.671 583.576C961.671 581.424 969.398 574.33 971.283 574.752C972.367 574.996 974.056 574.529 975.037 573.715C976.133 572.806 978.417 572.688 980.972 573.41C983.257 574.056 985.812 574.347 986.651 574.057C987.49 573.768 989.729 576.652 991.626 580.468C995.238 587.727 1000.35 591.058 1005.72 589.652C1007.33 589.233 1008.58 589.602 1008.58 590.492C1008.58 591.365 1010.18 592.08 1012.14 592.08C1014.09 592.08 1015.69 592.719 1015.69 593.501C1015.69 594.283 1016.65 594.923 1017.82 594.923C1018.99 594.923 1019.95 595.562 1019.95 596.344C1019.95 597.126 1020.79 597.766 1021.81 597.766C1023.16 597.766 1023.6 600.102 1023.43 606.286C1023.27 612.017 1023.83 615.336 1025.15 616.425C1026.62 617.646 1026.7 618.52 1025.49 619.981C1024.28 621.444 1024.42 622.731 1026.06 625.242C1028.04 628.269 1028 629.111 1025.52 634.644C1024.02 637.987 1022.8 642.251 1022.8 644.121C1022.8 646.194 1021.97 647.519 1020.66 647.519C1019.49 647.519 1018.53 648.435 1018.53 649.554C1018.53 651.038 1017 651.492 1012.87 651.233C1009.75 651.038 1006.77 650.442 1006.23 649.91C1005.7 649.377 1004.09 648.941 1002.66 648.941C1000.95 648.941 1000.05 647.902 1000.05 645.934C1000.05 643.065 999.892 643.033 996.549 645.223C994.622 646.486 992.208 647.519 991.186 647.519C990.164 647.519 986.943 649.485 984.029 651.887L978.73 656.255V669.564C978.73 686.372 979.783 689.14 987.325 692.158C990.611 693.473 993.05 694.798 992.745 695.103C991.929 695.919 959.846 696.953 957.762 696.23ZM991.357 637.674C990.469 640.352 987.425 644.599 984.592 647.111C981.759 649.622 978.922 651.701 978.287 651.73C976.803 651.799 978.656 638.823 980.453 636.565C981.204 635.622 981.45 634.255 981 633.527C980.033 631.962 984.085 628.234 985.364 629.513C985.847 629.997 985.352 631.527 984.263 632.914C982.463 635.208 982.509 635.259 984.771 633.485C986.622 632.034 987.747 631.94 989.167 633.118C990.216 633.988 991.501 634.274 992.023 633.752C992.545 633.23 992.245 634.995 991.357 637.674ZM981.026 625.175C980.545 624.694 980.152 625.09 980.152 626.055C980.152 627.163 979.103 627.477 977.308 626.907C974.711 626.083 974.465 626.652 974.465 633.487V640.97L978.183 633.51C980.227 629.407 981.507 625.656 981.026 625.175ZM961.672 627.185C961.672 623.589 966.594 624.245 968.666 628.116C969.649 629.954 970.237 632.883 969.972 634.625C969.499 637.734 969.419 637.717 965.581 633.693C963.431 631.439 961.672 628.51 961.672 627.185ZM968.006 644.224C966.822 639.504 960.673 633.304 957.177 633.304C954.62 633.304 954.602 633.526 956.804 637.924C959.736 643.781 966.29 650.382 967.792 648.991C968.421 648.408 968.518 646.263 968.006 644.224ZM952.775 638.789C953.733 637.831 954.904 637.434 955.377 637.907C955.85 638.381 956.02 639.76 955.756 640.974C955.413 642.545 954.665 642.799 953.154 641.855C951.481 640.809 951.401 640.163 952.775 638.789ZM997.21 638.72C997.21 634.968 993.786 636.2 993.203 640.161C992.863 642.465 993.311 643.025 994.98 642.385C996.206 641.914 997.21 640.265 997.21 638.72ZM971.667 626.196C972.424 626.196 973.044 627.156 973.044 628.329C973.044 629.501 972.792 630.461 972.485 630.461C972.178 630.461 971.558 629.501 971.108 628.329C970.658 627.156 970.91 626.196 971.667 626.196Z" fill="#159888"/>
<path d="M558.384 628.738C558.404 630.272 558.57 650.554 558.752 673.811H558.759C558.941 697.067 559.782 716.095 560.627 716.095C561.471 716.095 562.231 695.931 562.314 671.287C562.405 644.559 563.205 625.739 564.297 624.647C566.488 622.456 576.341 628.248 574.763 630.8C574.201 631.711 576.299 632.456 579.426 632.456H585.112L585.49 648.719L585.868 664.982L586.502 649.243C587.116 633.966 588.423 630.693 593.941 630.625C595.73 630.604 596.264 640.061 596.264 671.797C596.264 694.457 596.891 712.365 597.658 711.592C598.425 710.819 599.108 691.234 599.176 668.069C599.328 616.519 599.322 616.613 602.307 618.958C606.428 622.195 616.709 623.363 616.709 620.595C616.709 619.063 618.742 618.195 622.044 618.318C625.621 618.451 627.073 619.317 626.451 620.946C625.94 622.282 624.376 622.936 622.975 622.398C621.573 621.86 620.426 622.231 620.426 623.221C620.426 624.211 622.099 625.021 624.144 625.021C627.751 625.021 627.861 626.26 627.861 666.95C627.861 690.011 628.578 708.437 629.454 707.895C630.33 707.354 631.092 687.138 631.148 662.971C631.208 636.845 631.989 618.291 633.074 617.206C635.312 614.968 645.088 620.852 643.472 623.466C641.752 626.249 663.611 623.523 666.547 620.588C669.657 617.478 667.854 610.152 663.979 610.152C662.515 610.152 661.317 609.315 661.317 608.293C661.317 607.271 659.693 606.435 657.709 606.435C655.725 606.435 653.619 605.655 653.03 604.701C652.441 603.748 649.385 603.041 646.238 603.13C643.092 603.22 639.852 602.217 639.04 600.901C638.021 599.253 635.47 598.902 630.828 599.773C625.739 600.728 623.836 600.362 623.035 598.273C622.452 596.753 619.593 594.987 616.682 594.347C613.771 593.708 610.378 591.965 609.141 590.475C607.866 588.938 605.395 588.239 603.436 588.861C601.536 589.464 599.928 589.274 599.863 588.438C599.797 587.602 599.478 584.221 599.153 580.923C598.4 573.283 601.925 569.981 607.27 573.319C609.395 574.646 611.133 576.792 611.133 578.089C611.133 579.855 613.811 580.152 621.82 579.272C635.273 577.794 638.687 575.033 635.556 568.161C634.314 565.435 632.831 563.672 632.26 564.243C631.689 564.814 628.35 563.667 624.839 561.695C621.328 559.723 615.971 558.11 612.935 558.11C609.9 558.11 607.416 557.363 607.416 556.45C607.416 553.919 601.641 552.256 599.281 554.107C598.133 555.008 593.413 555.719 588.793 555.688C582.645 555.647 578.16 557.064 572.065 560.975C567.485 563.914 563.509 566.443 563.229 566.595C561.384 567.596 565.582 572.453 569.808 574.205C579.462 578.208 585.112 578.844 585.112 575.927C585.112 574.132 586.979 573.281 590.681 573.386C595.424 573.521 595.906 573.96 593.933 576.352C592.077 578.594 592.078 579.317 593.933 579.941C595.211 580.371 596.257 581.965 596.257 583.482C596.257 585.39 595.116 585.878 592.556 585.065C590.521 584.419 587.802 584.556 586.515 585.369C585.228 586.181 580.231 586.938 575.41 587.051C569.069 587.199 564.57 588.692 559.146 592.451C550.584 598.385 549.917 600.982 555.831 605.361L560.013 608.457L554.886 607.407C547.577 605.909 527.487 615.751 527.487 620.83C527.487 623.588 534.892 627.954 541.891 629.323C546.448 630.214 547.932 629.849 547.932 627.837C547.932 626.063 549.674 625.301 553.139 625.561C556.335 625.8 558.361 627.027 558.384 628.738Z" fill="#159888"/>
<path d="M584.991 676.097C584.082 679.143 583.843 684.789 584.459 688.643C586.137 699.134 586.982 697.137 586.804 683.104C586.671 672.718 586.359 671.512 584.991 676.097Z" fill="#159888"/>
<path d="M636.373 620.572C634.754 621.193 633.43 622.518 633.43 623.516C633.43 625.959 637.654 624.429 638.58 621.651C639.033 620.293 638.183 619.877 636.373 620.572Z" fill="#159888"/>
<path d="M605.55 574.838C604.528 574.838 603.691 575.674 603.691 576.696C603.691 577.718 604.528 578.555 605.55 578.555C606.572 578.555 607.408 577.718 607.408 576.696C607.408 575.674 606.572 574.838 605.55 574.838Z" fill="#159888"/>
<path d="M38.7879 531.258C38.8597 542.077 39.4935 551.504 40.1963 552.207C44.1936 556.204 45.5031 550.114 46.5656 522.59C47.1939 506.316 47.8216 492.374 47.9596 491.607C48.5229 488.488 51.9287 490.482 51.9287 493.931C51.9287 498.761 54.5152 498.668 57.8009 493.72C59.2354 491.559 62.6352 489.547 65.3558 489.248C71.9692 488.522 74.2325 486.93 74.2325 483.004C74.2325 478.304 63.4048 466.853 59.6957 467.631C56.9986 468.197 57.0547 467.77 60.124 464.379C65.4049 458.543 75.0743 459.628 70.194 465.508C66.7313 469.681 72.5676 474.507 77.7329 471.743C82.654 469.109 82.8412 464.151 78.0666 462.903C75.1473 462.139 74.7774 461.142 76.1116 457.633C77.0166 455.253 77.7327 448.264 77.7035 442.102C77.6509 431.102 77.5285 430.839 70.9246 427.565C64.7162 424.488 64.1923 423.588 64.1044 415.867C64.0123 407.728 63.8514 407.503 58.099 407.503C52.6362 407.503 44.494 401.721 44.494 397.842C44.494 397.043 46.6189 398.681 49.2159 401.482C53.3778 405.97 57.5046 408.103 57.5046 405.766C57.5046 397.673 42.845 386.891 38.345 391.674C36.6287 393.499 36.6531 394.22 38.4537 394.88C42.782 396.467 40.8074 399.139 35.3065 399.139C31.8783 399.139 28.8282 400.578 27.1366 402.993C25.3546 405.537 23.9993 406.138 23.1484 404.762C21.4517 402.016 17.2287 405.416 15.4948 410.924C14.7997 413.132 12.2559 417.854 9.8419 421.417C5.8123 427.366 5.71968 427.99 8.71048 429.039C10.502 429.668 11.9679 431.256 11.9679 432.57C11.9679 433.883 13.9654 435.696 16.4067 436.599C20.0437 437.945 20.466 437.784 18.7459 435.712C17.5913 434.321 17.1972 432.632 17.8698 431.959C20.1064 429.723 22.1897 430.695 22.219 433.989C22.2428 436.717 22.5261 436.801 23.9764 434.508C24.9274 433.004 26.3015 432.369 27.0297 433.098C29.1129 435.181 33.336 430.693 33.4015 426.327C33.4697 421.766 37.4458 415.867 40.4518 415.867C41.5809 415.867 43.3597 417.465 44.4045 419.417C45.6606 421.764 47.5718 422.635 50.0458 421.988C52.8849 421.246 53.7875 421.917 53.7875 424.77C53.7875 427.749 54.6557 428.306 57.9695 427.452C61.6061 426.515 61.8366 426.759 59.7379 429.319C58.1157 431.299 57.9634 432.659 59.2733 433.469C62.021 435.167 61.7075 438.657 58.8988 437.639C57.6209 437.176 55.1117 438.073 53.3228 439.631C49.2136 443.211 48.9993 439.508 53.0795 435.427C54.7346 433.772 55.5709 431.9 54.938 431.268C53.5321 429.862 53.2918 430.113 48.6139 437.889L44.8701 444.113L43.6098 438.375C42.9168 435.22 41.5776 432.161 40.634 431.577C39.6904 430.994 38.86 428.266 38.7876 425.516C38.6727 421.116 38.4779 420.962 37.1696 424.231C36.1761 426.714 36.921 430.404 39.4122 435.341C42.9794 442.411 44.4542 455.559 41.9598 458.053C39.7889 460.224 38.3887 456.924 37.4836 447.505C36.9904 442.371 35.9349 438.171 35.1385 438.171C34.342 438.171 34.1754 440.053 34.7681 442.353C35.728 446.078 35.5059 446.256 32.7353 443.984C30.8982 442.477 29.625 442.242 29.625 443.41C29.625 444.497 30.4615 445.903 31.4838 446.535C32.5061 447.167 33.3425 448.6 33.3425 449.721C33.3425 450.841 31.7007 450.272 29.6943 448.456C27.6878 446.641 24.7605 445.648 23.1891 446.251C21.6176 446.854 20.3319 446.538 20.3319 445.547C20.3319 442.622 14.8703 443.49 11.1915 447C6.41094 451.561 4.88287 457.777 7.39051 462.463C8.93394 465.346 8.96234 467.012 7.49363 468.481C6.37677 469.598 5.46289 472.128 5.46289 474.104C5.46289 478.131 12.4942 485.106 14.996 483.56C17.6219 481.937 16.8471 479.061 13.7839 479.061C11.3061 479.061 11.333 478.481 13.9999 474.411C15.6754 471.854 16.5893 468.013 16.0306 465.876C15.1056 462.339 15.2941 462.245 18.1379 464.826C22.6115 468.885 28.3192 479.061 26.1227 479.061C25.103 479.061 23.7518 478.225 23.12 477.203C22.4881 476.18 20.557 475.41 18.8285 475.491C16.2678 475.61 16.202 475.832 18.4733 476.685C22.7626 478.297 31.4839 484.723 31.4839 486.272C31.4839 487.032 29.8112 489.449 27.7667 491.644C23.886 495.809 22.6957 503.224 25.908 503.224C26.9302 503.224 27.7667 504.478 27.7667 506.012C27.7667 509.322 32.5418 509.741 34.4829 506.6C37.0891 502.383 38.6555 511.357 38.7879 531.258Z" fill="#159888"/>
<path d="M20.7437 486.496C17.7892 486.496 12.4797 493.61 13.818 495.775C16.1373 499.528 21.2402 496.87 21.8494 491.591C22.1729 488.789 21.6754 486.496 20.7437 486.496Z" fill="#159888"/>
<path d="M22.9338 438.667C22.3204 439.28 22.4735 440.842 23.2742 442.138C24.4451 444.032 24.883 444.034 25.5125 442.145C26.4109 439.45 24.5973 437.004 22.9338 438.667Z" fill="#159888"/>
<path fill-rule="evenodd" clip-rule="evenodd" d="M1175.31 675.778C1175.31 675.6 1175.7 674.609 1176.17 673.576C1176.86 672.053 1177.41 671.754 1179.05 671.996C1180.17 672.16 1181.22 672.069 1181.4 671.793C1181.57 671.518 1181.26 669.578 1180.72 667.483C1180.17 665.386 1179.89 662.056 1180.08 660.073C1180.48 655.947 1178.94 649.333 1176.77 645.812C1175.97 644.522 1174.86 642.172 1174.3 640.589C1173.18 637.407 1171.16 634.701 1169.9 634.701C1169.45 634.701 1168.31 635.296 1167.38 636.023C1164.54 638.226 1160.58 638.4 1158.28 636.423C1157.8 636.012 1160.04 634.148 1161.44 633.79C1162.34 633.562 1162.04 633.41 1160.59 633.357C1157.83 633.254 1156.47 631.756 1157.13 629.561C1157.85 627.211 1160.34 624.708 1161.96 624.708C1163.06 624.708 1163.18 624.501 1162.54 623.732C1161.93 622.999 1161.96 622.575 1162.63 622.025C1163.38 621.416 1169.26 620.607 1173.99 620.462C1174.63 620.442 1175.35 619.666 1175.58 618.738C1175.92 617.389 1176.37 617.119 1177.8 617.394C1178.85 617.595 1179.6 617.406 1179.6 616.94C1179.6 616.502 1179.84 616.203 1180.13 616.276C1180.43 616.349 1182.43 616.139 1184.59 615.81C1189.9 615 1198.06 615.141 1200.52 616.085C1201.63 616.509 1203.3 616.857 1204.23 616.857C1205.34 616.857 1206.6 617.732 1207.84 619.361C1209.24 621.192 1210.48 621.982 1212.47 622.3C1215.38 622.765 1218.14 624.815 1218.14 626.515C1218.14 627.085 1218.77 627.942 1219.53 628.42C1220.46 628.999 1220.7 629.56 1220.25 630.098C1219.78 630.671 1220.74 631.186 1223.56 631.862L1227.54 632.818L1225.87 634.15C1221.67 637.507 1220.91 637.861 1220.23 636.786C1219.7 635.952 1219.59 635.985 1219.58 636.973C1219.56 638.743 1217.3 639.156 1214.35 637.925C1212.93 637.33 1210.96 636.843 1209.99 636.843C1208.23 636.843 1200.79 638.592 1199.71 639.262C1199.4 639.455 1197.26 642.384 1194.96 645.771C1192.49 649.398 1189.54 652.778 1187.77 653.996C1185.84 655.328 1184.36 657.092 1183.61 658.958C1182.18 662.523 1182.18 662.797 1183.53 662.278C1184.38 661.951 1184.51 662.245 1184.16 663.658C1183.57 666.023 1186.48 672.188 1188.66 673.182C1189.56 673.593 1190.3 674.418 1190.3 675.015C1190.3 675.918 1189.04 676.101 1182.81 676.101C1178.69 676.101 1175.31 675.956 1175.31 675.778ZM1183.6 650.461C1184.95 651.998 1184.84 653.524 1183.29 654.934C1181.51 656.542 1181.02 656.421 1181.02 654.373C1181.02 653.414 1180.7 652.432 1180.31 652.189C1179.92 651.947 1179.6 651.019 1179.6 650.128C1179.6 649.237 1178.66 647.088 1177.52 645.352C1176.38 643.616 1175.08 640.83 1174.64 639.161C1173.7 635.622 1171.49 633.886 1167.19 633.304L1164.25 632.906L1167.82 631.62C1169.78 630.913 1171.95 630.029 1172.64 629.656C1173.63 629.12 1173.88 629.261 1173.88 630.336C1173.88 631.083 1174.37 631.879 1174.96 632.107C1175.55 632.334 1176.41 633.332 1176.86 634.324C1177.31 635.317 1177.94 636.129 1178.26 636.129C1179.19 636.129 1178.02 633.717 1176.61 632.698C1175.3 631.753 1174.73 629.259 1176.01 630.049C1176.39 630.285 1177.57 629.909 1178.63 629.214C1180.04 628.291 1180.64 628.187 1180.85 628.827C1181.07 629.488 1181.51 629.443 1182.65 628.644C1184.22 627.545 1190.78 627.803 1193.24 629.06C1193.87 629.384 1196.6 629.725 1199.3 629.818C1204.09 629.984 1205.99 630.546 1207.99 632.382C1208.53 632.872 1209.45 633.274 1210.04 633.274C1211.58 633.274 1210.86 634.814 1209 635.502C1207.78 635.956 1207.43 635.819 1207.43 634.876C1207.43 633.906 1207.22 633.981 1206.32 635.256C1205.6 636.288 1204.47 636.843 1203.1 636.843C1200.55 636.843 1196.19 639.514 1195.56 641.467C1194.92 643.432 1189.62 650.336 1188.15 651.124C1187.21 651.628 1186.75 651.372 1186.12 649.985C1185.67 649.001 1185.31 647.933 1185.31 647.61C1185.31 646.397 1191.94 637.163 1193.41 636.333C1194.69 635.609 1194.74 635.462 1193.69 635.44C1192.36 635.413 1189.59 637.802 1189.59 638.984C1189.59 639.377 1189.27 639.698 1188.87 639.698C1187.59 639.698 1188.13 636.956 1189.95 634.277C1190.93 632.83 1191.72 631.29 1191.7 630.854C1191.69 630.418 1191.19 630.945 1190.61 632.025C1189.21 634.6 1188.34 634.504 1187.61 631.697C1187.16 629.98 1187.04 630.829 1187.1 635.088C1187.19 641.588 1186.61 643.891 1184.32 646.044L1182.7 647.568L1181.96 644.37C1181.35 641.694 1181.45 640.674 1182.59 638.132C1183.63 635.808 1183.77 634.753 1183.2 633.648C1182.48 632.278 1182.46 632.286 1182.85 633.801C1183.11 634.821 1182.6 636.498 1181.43 638.44C1180.43 640.113 1179.61 641.027 1179.6 640.471C1179.6 639.915 1179.45 639.609 1179.26 639.792C1178.8 640.254 1182.39 649.083 1183.6 650.461ZM1178.22 637.854C1178.26 637.022 1178.43 636.853 1178.66 637.423C1178.86 637.938 1178.84 638.554 1178.6 638.791C1178.36 639.028 1178.19 638.606 1178.22 637.854ZM1196.81 634.291C1195.96 633.295 1195.96 633.031 1196.81 632.496C1197.35 632.15 1198.28 631.86 1198.87 631.849C1199.46 631.839 1201.14 631.631 1202.61 631.388C1204.99 630.996 1205.29 631.113 1205.29 632.424C1205.29 634.282 1204.73 634.622 1200.89 635.085C1198.57 635.365 1197.55 635.167 1196.81 634.291Z" fill="#159888"/>
<path d="M822.639 668.142C821.826 670.445 821.161 673.39 821.161 674.688C821.161 676.686 821.654 677.046 824.39 677.046L827.618 677.046L827.556 662.891C827.489 647.33 828.261 641.166 831.159 634.149C833.934 627.431 833.507 625.927 830.599 632.173C829.244 635.083 827.607 640.335 826.96 643.845C826.314 647.354 825.466 650.226 825.077 650.226C824.688 650.226 823.638 649.11 822.744 647.745C821.22 645.419 821.244 645.019 823.127 641.328C824.231 639.163 825.135 636.535 825.135 635.487C825.135 634.439 825.805 631.977 826.625 630.016C827.444 628.055 828.083 625.877 828.045 625.176C828.006 624.476 827.642 624.751 827.236 625.787C826.588 627.437 826.227 627.214 824.325 623.992C823.132 621.968 822.103 619.332 822.039 618.134C821.944 616.336 821.842 616.274 821.455 617.774C821.196 618.774 821.88 621.679 822.975 624.231C824.777 628.433 824.942 631.768 823.565 636.149C823.291 637.021 822.267 636.418 820.547 634.374C818.543 631.992 817.767 629.674 817.178 624.306C816.757 620.471 816.14 617.06 815.807 616.727C815.474 616.394 815.201 616.698 815.201 617.402C815.201 618.415 814.847 618.398 813.506 617.319C812.268 616.323 812.421 616.955 814.074 619.665C815.319 621.705 816.18 624.387 815.989 625.625C815.663 627.732 815.532 627.674 813.942 624.718C813.008 622.981 811.31 621.264 810.171 620.902C807.073 619.919 806.569 621.208 809.6 622.36C811.042 622.909 812.221 623.746 812.221 624.221C812.221 624.696 814.009 627.851 816.195 631.232C820.411 637.756 820.799 639.245 819.105 642.409C818.206 644.089 817.801 644.194 816.471 643.09C814.069 641.097 807.624 632.094 806.848 629.649C805.939 626.785 800.347 623.406 796.518 623.406C794.839 623.406 793.215 623.001 792.909 622.506C792.603 622.011 791.571 621.809 790.615 622.057C789.66 622.305 788.001 621.864 786.929 621.078C785.271 619.861 785.178 619.409 786.305 618.05C787.035 617.172 788.1 616.453 788.673 616.453C789.246 616.453 790.574 615.671 791.624 614.714C793.313 613.177 796.266 612.478 812.221 609.839C814.133 609.523 816.235 608.833 816.892 608.306C818.241 607.224 822.276 608.204 823.381 609.882C823.832 610.567 824.117 610.305 824.126 609.195C824.14 607.539 824.312 607.52 826.349 608.946C828.909 610.74 833.081 611.007 833.081 609.378C833.081 608.576 833.444 608.564 834.372 609.334C835.082 609.924 837.551 610.707 839.858 611.076C845.07 611.91 846.105 613.302 842.106 614.102L839.079 614.707L841.295 616.419C844.448 618.855 849.345 619.611 851.546 618.001C852.971 616.959 853.118 616.364 852.216 615.278C851.308 614.184 851.494 613.618 853.09 612.621C854.655 611.644 854.965 610.748 854.452 608.689C853.575 605.174 851.12 602.546 848.714 602.546C847.378 602.546 846.957 602.072 847.362 601.019C848.087 599.128 847.217 598.838 838.681 598.127C831.324 597.513 830.101 597.108 830.101 595.286C830.101 594.635 828.872 594.042 827.37 593.968C825.867 593.894 822.068 593.41 818.926 592.893C815.785 592.375 813.215 592.212 813.214 592.531C813.214 592.849 810.919 593.098 808.115 593.085C805.31 593.071 801.399 593.623 799.423 594.311C797.448 595 795.171 595.57 794.363 595.578C793.556 595.586 791.26 597.381 789.263 599.566C787.052 601.985 784.742 603.539 783.359 603.539C780.599 603.539 777.455 606.201 777.455 608.538C777.455 609.48 776.789 610.802 775.976 611.477C775.162 612.152 774.711 613.052 774.974 613.476C775.555 614.417 769.426 617.438 766.875 617.468C765.808 617.481 767.268 618.79 770.356 620.589C774.378 622.934 775.862 623.382 776.451 622.429C777.475 620.773 784.566 620.545 785.128 622.15C785.522 623.278 783.813 624.319 779.13 625.802C778.139 626.115 777.604 626.818 777.941 627.363C778.311 627.961 780.566 627.333 783.637 625.777C788.246 623.441 789.1 623.309 792.773 624.366C795.001 625.007 797.942 625.836 799.308 626.208C800.98 626.663 803.646 629.687 807.466 635.462C810.586 640.18 814.958 645.48 817.18 647.24C819.403 649 821.878 651.711 822.681 653.264C824.342 656.475 824.642 660.586 823.148 659.663C821.887 658.884 821.883 659.782 823.135 662.122C823.822 663.405 823.673 665.211 822.639 668.142Z" fill="#159888"/>
<path d="M835.533 618.743C834.104 620.368 833.129 622.646 833.197 624.207C833.286 626.276 833.421 626.433 833.796 624.896C834.062 623.803 834.905 622.203 835.669 621.339C836.433 620.475 836.76 619.469 836.395 619.104C836.029 618.738 836.252 618.439 836.889 618.439C837.526 618.439 838.034 617.881 838.017 617.198C837.999 616.515 836.882 617.21 835.533 618.743Z" fill="#159888"/>
<path d="M830.332 614.868C829.113 615.909 828.143 617.697 828.178 618.842C828.235 620.74 828.326 620.709 829.211 618.493C829.745 617.157 830.714 615.369 831.366 614.52C832.028 613.657 831.572 613.811 830.332 614.868Z" fill="#159888"/>
<path d="M796.412 618.13C797.457 617.856 798.551 618.018 798.842 618.489C799.427 619.435 801.802 618.772 804.609 616.879C806.38 615.685 806.38 615.632 804.609 615.115C802.615 614.533 798.118 614.196 794.555 614.361C792.566 614.453 792.423 614.724 793.398 616.546C794.131 617.915 795.162 618.457 796.412 618.13Z" fill="#159888"/>
<path d="M816.852 612.231C816.577 611.548 816.351 612.107 816.351 613.473C816.351 614.839 816.577 615.397 816.852 614.714C817.128 614.032 817.128 612.914 816.852 612.231Z" fill="#159888"/>
<path d="M332.124 648.715C331.311 651.018 330.647 653.963 330.647 655.26C330.647 657.259 331.139 657.619 333.875 657.618L337.104 657.618L337.042 643.463C336.974 627.903 337.747 621.739 340.645 614.721C343.419 608.003 342.992 606.499 340.084 612.746C338.73 615.655 337.092 620.908 336.446 624.417C335.799 627.927 334.952 630.799 334.562 630.799C334.173 630.799 333.124 629.682 332.229 628.318C330.705 625.991 330.729 625.591 332.612 621.901C333.716 619.736 334.62 617.107 334.62 616.06C334.62 615.012 335.29 612.55 336.11 610.589C336.929 608.627 337.569 606.449 337.53 605.749C337.492 605.048 337.128 605.323 336.721 606.36C336.073 608.01 335.712 607.787 333.811 604.564C332.617 602.541 331.588 599.905 331.525 598.707C331.43 596.909 331.328 596.846 330.94 598.347C330.682 599.346 331.366 602.252 332.46 604.803C334.263 609.006 334.428 612.341 333.051 616.721C332.777 617.593 331.752 616.991 330.032 614.947C328.028 612.565 327.252 610.247 326.663 604.879C326.242 601.043 325.625 597.633 325.292 597.3C324.959 596.967 324.687 597.271 324.687 597.975C324.687 598.988 324.332 598.97 322.992 597.892C321.753 596.896 321.906 597.527 323.559 600.238C324.804 602.278 325.666 604.96 325.474 606.198C325.149 608.305 325.018 608.247 323.427 605.291C322.493 603.554 320.796 601.837 319.656 601.475C316.558 600.492 316.054 601.781 319.086 602.933C320.527 603.481 321.707 604.318 321.707 604.794C321.707 605.269 323.495 608.424 325.68 611.805C329.896 618.329 330.284 619.817 328.591 622.981C327.691 624.662 327.286 624.766 325.956 623.662C323.555 621.669 317.109 612.666 316.333 610.221C315.424 607.358 309.833 603.979 306.003 603.979C304.324 603.979 302.7 603.574 302.394 603.079C302.088 602.584 301.056 602.382 300.101 602.63C299.145 602.878 297.486 602.437 296.414 601.65C294.756 600.434 294.663 599.982 295.791 598.623C296.52 597.744 297.585 597.025 298.158 597.025C298.731 597.025 300.059 596.243 301.109 595.287C302.798 593.749 305.751 593.05 321.707 590.412C323.619 590.095 325.721 589.406 326.377 588.879C327.727 587.797 331.761 588.776 332.866 590.454C333.318 591.14 333.602 590.877 333.611 589.767C333.625 588.111 333.797 588.092 335.834 589.519C338.394 591.312 342.567 591.579 342.567 589.95C342.567 589.148 342.929 589.136 343.858 589.907C344.568 590.496 347.036 591.28 349.343 591.649C354.556 592.483 355.59 593.874 351.591 594.674L348.565 595.279L350.781 596.992C353.933 599.428 358.83 600.183 361.032 598.574C362.457 597.532 362.603 596.937 361.701 595.85C360.793 594.756 360.979 594.191 362.575 593.194C364.141 592.216 364.451 591.321 363.937 589.262C363.06 585.746 360.606 583.119 358.2 583.119C356.863 583.119 356.443 582.644 356.847 581.591C357.572 579.701 356.703 579.411 348.166 578.699C340.81 578.086 339.587 577.681 339.587 575.859C339.587 575.208 338.357 574.615 336.855 574.541C335.353 574.466 331.553 573.982 328.412 573.465C325.27 572.948 322.7 572.785 322.7 573.103C322.7 573.422 320.405 573.671 317.6 573.657C314.796 573.644 310.884 574.196 308.909 574.884C306.933 575.572 304.656 576.143 303.848 576.15C303.041 576.159 300.746 577.953 298.748 580.139C296.538 582.557 294.227 584.112 292.845 584.112C290.084 584.112 286.94 586.774 286.94 589.111C286.94 590.052 286.274 591.375 285.461 592.05C284.648 592.725 284.197 593.624 284.459 594.049C285.04 594.989 278.911 598.01 276.36 598.041C275.294 598.053 276.753 599.362 279.841 601.162C283.864 603.506 285.348 603.954 285.937 603.001C286.96 601.346 294.052 601.118 294.613 602.723C295.008 603.85 293.298 604.891 288.615 606.374C287.625 606.688 287.09 607.39 287.426 607.935C287.796 608.534 290.051 607.906 293.123 606.349C297.732 604.014 298.585 603.882 302.258 604.939C304.487 605.58 307.428 606.408 308.793 606.78C310.465 607.235 313.131 610.259 316.951 616.034C320.072 620.752 324.443 626.053 326.666 627.813C328.888 629.573 331.364 632.284 332.167 633.836C333.827 637.047 334.127 641.158 332.633 640.235C331.373 639.456 331.368 640.354 332.621 642.695C333.307 643.978 333.158 645.784 332.124 648.715Z" fill="#159888"/>
<path d="M345.019 599.316C343.589 600.94 342.615 603.219 342.682 604.779C342.771 606.849 342.907 607.005 343.281 605.469C343.547 604.376 344.39 602.775 345.155 601.911C345.919 601.048 346.245 600.042 345.88 599.676C345.515 599.311 345.737 599.012 346.374 599.012C347.012 599.012 347.519 598.453 347.502 597.77C347.485 597.087 346.367 597.783 345.019 599.316Z" fill="#159888"/>
<path d="M339.818 595.441C338.598 596.482 337.629 598.27 337.663 599.414C337.72 601.312 337.811 601.282 338.696 599.066C339.23 597.729 340.2 595.941 340.851 595.092C341.513 594.23 341.057 594.383 339.818 595.441Z" fill="#159888"/>
<path d="M305.897 598.702C306.943 598.429 308.036 598.591 308.328 599.062C308.912 600.008 311.288 599.344 314.095 597.451C315.865 596.257 315.865 596.205 314.095 595.688C312.1 595.106 307.604 594.768 304.04 594.934C302.052 595.026 301.908 595.297 302.883 597.119C303.616 598.488 304.647 599.029 305.897 598.702Z" fill="#159888"/>
<path d="M326.338 592.804C326.062 592.121 325.837 592.68 325.837 594.045C325.837 595.411 326.062 595.97 326.338 595.287C326.613 594.604 326.613 593.487 326.338 592.804Z" fill="#159888"/>
<path d="M1219.79 648.715C1218.98 651.018 1218.31 653.963 1218.31 655.26C1218.31 657.259 1218.81 657.619 1221.54 657.618L1224.77 657.618L1224.71 643.463C1224.64 627.903 1225.41 621.739 1228.31 614.721C1231.09 608.003 1230.66 606.499 1227.75 612.746C1226.4 615.655 1224.76 620.908 1224.11 624.417C1223.47 627.927 1222.62 630.799 1222.23 630.799C1221.84 630.799 1220.79 629.682 1219.9 628.318C1218.37 625.991 1218.4 625.591 1220.28 621.901C1221.38 619.736 1222.29 617.107 1222.29 616.06C1222.29 615.012 1222.96 612.55 1223.78 610.589C1224.6 608.627 1225.24 606.449 1225.2 605.749C1225.16 605.048 1224.8 605.323 1224.39 606.36C1223.74 608.01 1223.38 607.787 1221.48 604.564C1220.28 602.541 1219.26 599.905 1219.19 598.707C1219.1 596.909 1219 596.846 1218.61 598.347C1218.35 599.346 1219.03 602.252 1220.13 604.803C1221.93 609.006 1222.1 612.341 1220.72 616.721C1220.44 617.593 1219.42 616.991 1217.7 614.947C1215.7 612.565 1214.92 610.247 1214.33 604.879C1213.91 601.043 1213.29 597.633 1212.96 597.3C1212.63 596.967 1212.35 597.271 1212.35 597.975C1212.35 598.988 1212 598.97 1210.66 597.892C1209.42 596.896 1209.57 597.527 1211.23 600.238C1212.47 602.278 1213.33 604.96 1213.14 606.198C1212.82 608.305 1212.69 608.247 1211.1 605.291C1210.16 603.554 1208.46 601.837 1207.32 601.475C1204.23 600.492 1203.72 601.781 1206.75 602.933C1208.19 603.481 1209.37 604.318 1209.37 604.794C1209.37 605.269 1211.16 608.424 1213.35 611.805C1217.56 618.329 1217.95 619.817 1216.26 622.981C1215.36 624.662 1214.95 624.766 1213.62 623.662C1211.22 621.669 1204.78 612.666 1204 610.221C1203.09 607.358 1197.5 603.979 1193.67 603.979C1191.99 603.979 1190.37 603.574 1190.06 603.079C1189.76 602.584 1188.72 602.382 1187.77 602.63C1186.81 602.878 1185.15 602.437 1184.08 601.65C1182.42 600.434 1182.33 599.982 1183.46 598.623C1184.19 597.744 1185.25 597.025 1185.83 597.025C1186.4 597.025 1187.73 596.243 1188.78 595.287C1190.47 593.749 1193.42 593.05 1209.37 590.412C1211.29 590.095 1213.39 589.406 1214.04 588.879C1215.39 587.797 1219.43 588.776 1220.53 590.454C1220.99 591.14 1221.27 590.877 1221.28 589.767C1221.29 588.111 1221.46 588.092 1223.5 589.519C1226.06 591.312 1230.23 591.579 1230.23 589.95C1230.23 589.148 1230.6 589.136 1231.53 589.907C1232.24 590.496 1234.7 591.28 1237.01 591.649C1242.22 592.483 1243.26 593.874 1239.26 594.674L1236.23 595.279L1238.45 596.992C1241.6 599.428 1246.5 600.183 1248.7 598.574C1250.12 597.532 1250.27 596.937 1249.37 595.85C1248.46 594.756 1248.65 594.191 1250.24 593.194C1251.81 592.216 1252.12 591.321 1251.6 589.262C1250.73 585.746 1248.27 583.119 1245.87 583.119C1244.53 583.119 1244.11 582.644 1244.51 581.591C1245.24 579.701 1244.37 579.411 1235.83 578.699C1228.48 578.086 1227.25 577.681 1227.25 575.859C1227.25 575.208 1226.02 574.615 1224.52 574.541C1223.02 574.466 1219.22 573.982 1216.08 573.465C1212.94 572.948 1210.37 572.785 1210.37 573.103C1210.37 573.422 1208.07 573.671 1205.27 573.657C1202.46 573.644 1198.55 574.196 1196.58 574.884C1194.6 575.572 1192.32 576.143 1191.52 576.15C1190.71 576.159 1188.41 577.953 1186.42 580.139C1184.21 582.557 1181.89 584.112 1180.51 584.112C1177.75 584.112 1174.61 586.774 1174.61 589.111C1174.61 590.052 1173.94 591.375 1173.13 592.05C1172.32 592.725 1171.86 593.624 1172.13 594.049C1172.71 594.989 1166.58 598.01 1164.03 598.041C1162.96 598.053 1164.42 599.362 1167.51 601.162C1171.53 603.506 1173.02 603.954 1173.6 603.001C1174.63 601.346 1181.72 601.118 1182.28 602.723C1182.68 603.85 1180.97 604.891 1176.28 606.374C1175.29 606.688 1174.76 607.39 1175.09 607.935C1175.46 608.534 1177.72 607.906 1180.79 606.349C1185.4 604.014 1186.25 603.882 1189.93 604.939C1192.15 605.58 1195.1 606.408 1196.46 606.78C1198.13 607.235 1200.8 610.259 1204.62 616.034C1207.74 620.752 1212.11 626.053 1214.33 627.813C1216.56 629.573 1219.03 632.284 1219.83 633.836C1221.49 637.047 1221.79 641.158 1220.3 640.235C1219.04 639.456 1219.04 640.354 1220.29 642.695C1220.97 643.978 1220.83 645.784 1219.79 648.715Z" fill="#159888"/>
<path d="M1232.69 599.316C1231.26 600.94 1230.28 603.219 1230.35 604.779C1230.44 606.849 1230.57 607.005 1230.95 605.469C1231.21 604.376 1232.06 602.775 1232.82 601.911C1233.59 601.048 1233.91 600.042 1233.55 599.676C1233.18 599.311 1233.4 599.012 1234.04 599.012C1234.68 599.012 1235.19 598.453 1235.17 597.77C1235.15 597.087 1234.03 597.783 1232.69 599.316Z" fill="#159888"/>
<path d="M1227.49 595.441C1226.27 596.482 1225.3 598.27 1225.33 599.414C1225.39 601.312 1225.48 601.282 1226.36 599.066C1226.9 597.729 1227.87 595.941 1228.52 595.092C1229.18 594.23 1228.73 594.383 1227.49 595.441Z" fill="#159888"/>
<path d="M1193.57 598.702C1194.61 598.429 1195.7 598.591 1196 599.062C1196.58 600.008 1198.96 599.344 1201.76 597.451C1203.53 596.257 1203.53 596.205 1201.76 595.688C1199.77 595.106 1195.27 594.768 1191.71 594.934C1189.72 595.026 1189.58 595.297 1190.55 597.119C1191.28 598.488 1192.31 599.029 1193.57 598.702Z" fill="#159888"/>
<path d="M1214.01 592.804C1213.73 592.121 1213.5 592.68 1213.5 594.045C1213.5 595.411 1213.73 595.97 1214.01 595.287C1214.28 594.604 1214.28 593.487 1214.01 592.804Z" fill="#159888"/>
</g>
<defs>
<clipPath id="clip0_1_5">
<rect width="1512" height="982" fill="white"/>
</clipPath>
</defs>
</svg>
